<?xml version="1.0" standalone="no"?>
<!DOCTYPE svg PUBLIC "-//W3C//DTD SVG 1.1//EN" "http://www.w3.org/Graphics/SVG/1.1/DTD/svg11.dtd" >
<svg xmlns="http://www.w3.org/2000/svg">
<metadata></metadata>
<defs>
<font id="karbonbold" horiz-adv-x="1312" >
<font-face units-per-em="2048" ascent="1393" descent="-655" />
<missing-glyph horiz-adv-x="389" />
<glyph unicode="&#xfb01;" horiz-adv-x="1157" d="M16 680v242h146v73q0 104 34.5 186t93.5 131.5t133 75t157 25.5q162 0 254 -61v-271q-94 64 -209 64q-75 0 -123.5 -37.5t-48.5 -116.5v-69h581v-922h-291v680h-290v-680h-291v680h-146z" />
<glyph unicode="&#xfb02;" horiz-adv-x="1157" d="M16 680v242h146v125q0 183 94.5 274.5t243.5 91.5q77 0 143 -29v-264q-43 21 -98 21q-92 0 -92 -109v-110h165v-242h-165v-680h-291v680h-146zM743 0v1393h291v-1393h-291z" />
<glyph unicode="&#xfb03;" horiz-adv-x="1738" d="M16 680v242h146v92q0 183 94.5 274.5t243.5 91.5q92 0 159 -34v-267q-44 31 -110 31q-46 0 -71 -29t-25 -82v-77h290v73q0 104 35 186t94 131.5t133.5 75t157.5 25.5q160 0 252 -61v-271q-94 64 -209 64q-75 0 -123.5 -37.5t-48.5 -116.5v-69h582v-922h-291v680h-291 v-680h-291v680h-290v-680h-291v680h-146z" />
<glyph unicode="&#xfb04;" horiz-adv-x="1738" d="M16 680v242h146v92q0 183 94.5 274.5t243.5 91.5q92 0 159 -34v-267q-44 31 -110 31q-46 0 -71 -29t-25 -82v-77h290v125q0 182 95.5 274t244.5 92q79 0 142 -29v-264q-44 21 -99 21q-92 0 -92 -109v-110h166v-242h-166v-680h-291v680h-290v-680h-291v680h-146zM1325 0 v1393h291v-1393h-291z" />
<glyph horiz-adv-x="0" />
<glyph horiz-adv-x="682" />
<glyph unicode=" "  horiz-adv-x="389" />
<glyph unicode="&#x09;" horiz-adv-x="389" />
<glyph unicode="&#xa0;" horiz-adv-x="389" />
<glyph unicode="!" horiz-adv-x="524" d="M76 168q0 77 54 131.5t130 54.5t131 -55t55 -131t-54.5 -130t-131.5 -54q-76 0 -130 54t-54 130zM117 422v795h291v-795h-291z" />
<glyph unicode="&#x22;" horiz-adv-x="782" d="M102 834l41 485h248l-82 -485h-207zM432 834l41 485h248l-88 -485h-201z" />
<glyph unicode="#" horiz-adv-x="1124" d="M61 313v191h181l43 219h-158v190h197l61 304h217l-61 -304h172l61 304h217l-61 -304h133v-190h-172l-43 -219h149v-191h-188l-64 -313h-217l64 313h-172l-64 -313h-217l64 313h-142zM459 504h172l43 219h-172z" />
<glyph unicode="$" horiz-adv-x="927" d="M41 852q0 142 86.5 234.5t230.5 119.5v187h226v-185q123 -16 227 -78v-288q-152 123 -328 123q-68 0 -104.5 -26t-36.5 -69q0 -53 46 -79t157 -52q187 -46 264.5 -133.5t77.5 -238.5q0 -142 -82 -229.5t-221 -119.5v-213h-226v197q-169 9 -292 82v289q169 -121 342 -121 q174 0 174 104q0 51 -43.5 77t-145.5 50q-190 45 -271 132t-81 237z" />
<glyph unicode="%" horiz-adv-x="1425" d="M41 924q0 136 90.5 224.5t222.5 88.5t223 -88.5t91 -224.5t-91 -225t-223 -89t-222.5 89t-90.5 225zM250 0l731 1217h193l-732 -1217h-192zM252 924q0 -49 28.5 -78t73.5 -29q46 0 75.5 29t29.5 78q0 50 -29 79t-76 29q-45 0 -73.5 -29t-28.5 -79zM758 293 q0 136 90.5 224.5t222.5 88.5t222.5 -88.5t90.5 -224.5t-90.5 -224.5t-222.5 -88.5t-222.5 88.5t-90.5 224.5zM969 293q0 -49 28.5 -78t73.5 -29q46 0 75.5 29t29.5 78q0 50 -29 79t-76 29q-45 0 -73.5 -29t-28.5 -79z" />
<glyph unicode="&#x26;" horiz-adv-x="1230" d="M43 328q0 85 31 149t78.5 101t119.5 67q-96 114 -96 264q0 145 103.5 236.5t267.5 91.5q153 0 255.5 -83.5t102.5 -227.5q-3 -124 -67 -213q-51 -71 -144 -123l146 -160q46 90 55 207h246q-6 -222 -135 -389l225 -248h-350l-68 72q-156 -92 -344 -92q-200 0 -313 93 t-113 255zM332 340q0 -131 170 -131q75 0 149 33l-233 245q-86 -51 -86 -147zM455 915q0 -39 20.5 -72.5t75.5 -94.5q49 31 70.5 68t23.5 93q0 48 -27.5 73.5t-68.5 25.5q-40 0 -67 -26.5t-27 -66.5z" />
<glyph unicode="'" horiz-adv-x="452" d="M102 834l41 485h248l-82 -485h-207z" />
<glyph unicode="(" horiz-adv-x="862" d="M172 555q0 231 94.5 458.5t257.5 379.5h318q-188 -186 -285.5 -403t-97.5 -435t97.5 -435t285.5 -403h-318q-163 154 -257.5 381t-94.5 457z" />
<glyph unicode=")" horiz-adv-x="862" d="M20 -283q188 186 285.5 403t97.5 435t-97.5 435t-285.5 403h318q163 -152 257.5 -379.5t94.5 -458.5q0 -230 -94.5 -457t-257.5 -381h-318z" />
<glyph unicode="*" horiz-adv-x="819" d="M61 1057l64 203l192 -70l-4 203h213l-6 -205l191 67l67 -200l-196 -60l123 -161l-170 -125l-117 170l-117 -166l-170 121l123 163z" />
<glyph unicode="+" horiz-adv-x="940" d="M82 494v211h283v282h210v-282h283v-211h-283v-283h-210v283h-283z" />
<glyph unicode="," horiz-adv-x="559" d="M18 -229q70 109 98.5 224.5t28.5 260.5h295q0 -167 -58.5 -289.5t-154.5 -195.5h-209z" />
<glyph unicode="-" horiz-adv-x="727" d="M70 406v258h587v-258h-587z" />
<glyph unicode="." horiz-adv-x="559" d="M94 168q0 77 54.5 131.5t130.5 54.5q77 0 131.5 -55t54.5 -131t-54.5 -130t-131.5 -54t-131 54t-54 130z" />
<glyph unicode="/" horiz-adv-x="940" d="M-25 -283l643 1676h300l-644 -1676h-299z" />
<glyph unicode="0" horiz-adv-x="1075" d="M53 606q0 281 133.5 456t352.5 175q217 0 350 -175t133 -456q0 -278 -133 -452t-350 -174q-219 0 -352.5 174t-133.5 452zM356 606q0 -183 48.5 -275.5t134.5 -92.5q85 0 133.5 93t48.5 275q0 185 -48.5 279t-133.5 94q-86 0 -134.5 -93.5t-48.5 -279.5z" />
<glyph unicode="1" horiz-adv-x="679" d="M43 877v274l520 84v-1235h-301v903z" />
<glyph unicode="2" horiz-adv-x="927" d="M31 0v223l1 1l1 1l1 1h1l1 1l1 1l1 1l1 1l1 1l1 1l1 1h1l1 1l1 1l1 1l1 1l1 1l1 1l1 1l2 1q226 197 309 285q159 168 159 287q0 72 -43.5 107.5t-122.5 35.5q-69 0 -153.5 -40t-147.5 -95v287q151 129 391 129q174 0 288 -97.5t114 -271.5q0 -84 -29.5 -163.5 t-87.5 -154.5t-130.5 -142t-170.5 -140h449v-268h-846z" />
<glyph unicode="3" horiz-adv-x="866" d="M41 70v282q144 -123 311 -123q73 0 117.5 30t44.5 89q0 74 -61 104.5t-193 30.5v238q116 0 174 38t58 109q0 52 -33.5 78.5t-89.5 26.5q-142 0 -303 -129v280q149 113 356 113q173 0 274 -85.5t101 -238.5q0 -207 -199 -299q221 -73 221 -288q0 -73 -25.5 -132.5 t-68 -98.5t-100 -65.5t-119 -38t-127.5 -11.5q-193 0 -338 90z" />
<glyph unicode="4" horiz-adv-x="1142" d="M43 279v245l571 693h289v-701h164v-237h-164v-279h-291v279h-569zM330 516h282v352z" />
<glyph unicode="5" horiz-adv-x="864" d="M29 70v268q150 -109 299 -109q94 0 145 32.5t51 113.5q0 43 -24.5 77t-63 55t-97.5 36t-114 22.5t-127 12.5l45 639h637v-271h-393l-12 -153q432 -59 432 -408q0 -194 -126.5 -299.5t-338.5 -105.5q-87 0 -173.5 25t-139.5 65z" />
<glyph unicode="6" horiz-adv-x="983" d="M45 414q0 58 14 119.5t41.5 122.5t46.5 96.5t48 85.5l221 379h315l-162 -277l-82 -131q28 8 66 8q104 0 193.5 -45t147.5 -138.5t58 -219.5q0 -188 -128 -311t-337 -123q-200 0 -321 123t-121 311zM326 406q0 -81 48.5 -129t119.5 -48q73 0 121.5 48t48.5 129 q0 82 -48.5 130t-121.5 48q-72 0 -120 -48t-48 -130z" />
<glyph unicode="7" horiz-adv-x="921" d="M27 946v271h821v-273l-455 -944h-311l444 946h-499z" />
<glyph unicode="8" horiz-adv-x="946" d="M43 334q0 102 58.5 175t144.5 103q-74 38 -117 110t-43 165q0 108 53 189t140 121t194 40q167 0 276 -94t109 -256q0 -93 -42 -165t-114 -110q83 -31 142 -104t59 -174q0 -163 -123 -258.5t-307 -95.5t-307 95.5t-123 258.5zM338 348q0 -57 37.5 -91t97.5 -34t97.5 34 t37.5 91q0 60 -37.5 95.5t-97.5 35.5t-97.5 -35.5t-37.5 -95.5zM352 870q0 -57 33.5 -89.5t87.5 -32.5t87.5 32.5t33.5 89.5q0 56 -33.5 88.5t-87.5 32.5t-87.5 -32.5t-33.5 -88.5z" />
<glyph unicode="9" horiz-adv-x="983" d="M31 803q0 188 128 311t337 123q200 0 321 -123t121 -311q0 -58 -14 -119.5t-41.5 -122.5t-46.5 -96.5t-48 -85.5l-221 -379h-315l162 276l82 132q-32 -9 -66 -9q-77 0 -148 27t-127.5 76.5t-90 127.5t-33.5 173zM319 811q0 -82 48.5 -130t121.5 -48q72 0 120 48t48 130 q0 81 -48 128.5t-120 47.5q-73 0 -121.5 -47.5t-48.5 -128.5z" />
<glyph unicode=":" horiz-adv-x="559" d="M94 168q0 77 54.5 131.5t130.5 54.5q77 0 131.5 -55t54.5 -131t-54.5 -130t-131.5 -54t-131 54t-54 130zM94 696q0 77 54.5 132t130.5 55t131 -55t55 -132q0 -76 -54.5 -130t-131.5 -54t-131 54t-54 130z" />
<glyph unicode=";" horiz-adv-x="559" d="M18 -229q70 109 98.5 224.5t28.5 260.5h295q0 -167 -58.5 -289.5t-154.5 -195.5h-209zM111 696q0 77 54 132t130 55t131 -55t55 -132q0 -76 -54.5 -130t-131.5 -54t-130.5 54t-53.5 130z" />
<glyph unicode="&#x3c;" horiz-adv-x="735" d="M61 588v16l592 377v-240l-254 -145l254 -145v-240z" />
<glyph unicode="=" horiz-adv-x="960" d="M92 344v191h776v-191h-776zM92 672v190h776v-190h-776z" />
<glyph unicode="&#x3e;" horiz-adv-x="735" d="M82 211v240l254 145l-254 145v240l592 -377v-16z" />
<glyph unicode="?" horiz-adv-x="782" d="M31 844v274q58 51 149.5 85t200.5 34q82 0 148.5 -18.5t120 -58.5t83 -110t29.5 -165q0 -68 -21.5 -125t-54 -94t-76 -66.5t-81.5 -44.5t-78 -25v-108h-269v248q61 17 92 26t71 23t58 26t36.5 29.5t25 38.5t6.5 49q0 56 -36 83.5t-99 27.5q-78 0 -148.5 -32.5 t-156.5 -96.5zM135 164q0 79 52.5 134.5t125.5 55.5q83 0 138 -55t55 -135q0 -74 -55.5 -127t-137.5 -53q-72 0 -125 53.5t-53 126.5z" />
<glyph unicode="@" horiz-adv-x="1576" d="M82 432q0 157 51.5 293t146.5 237t238.5 158.5t319.5 57.5q307 0 482 -163t175 -425q0 -140 -46 -250t-127.5 -180t-191.5 -106t-241 -36q-221 0 -349 108t-128 308q0 192 124.5 307t327.5 115q155 0 277 -49v-569q84 38 138 129.5t54 222.5q0 211 -132 327.5t-363 116.5 q-279 0 -437.5 -165.5t-158.5 -436.5q0 -130 39 -233t102.5 -168t152 -107.5t180 -60t193.5 -17.5q228 0 418 72v-147q-167 -70 -418 -70q-180 0 -328.5 44.5t-261 132t-175 229t-62.5 325.5zM653 432q0 -96 57.5 -152.5t155.5 -56.5q29 0 52 2v406q-20 4 -54 4 q-97 0 -154 -57t-57 -146z" />
<glyph unicode="A" d="M0 0l473 1217h367l473 -1217h-334l-82 231h-491l-84 -231h-322zM498 479h311l-154 432z" />
<glyph unicode="B" horiz-adv-x="1099" d="M125 8v1196q198 33 373 33q106 0 190.5 -18t152.5 -57t105 -107.5t37 -163.5q0 -102 -62 -172t-155 -88q123 -12 199.5 -88.5t76.5 -202.5q0 -177 -142.5 -266.5t-444.5 -89.5q-166 0 -330 24zM418 238q67 -5 96 -5q217 0 217 129q0 125 -176 125h-137v-249zM418 729h88 q93 0 135.5 33.5t42.5 101.5q0 58 -42 87.5t-114 29.5q-64 0 -110 -8v-244z" />
<glyph unicode="C" horiz-adv-x="1128" d="M66 608q0 280 172.5 454.5t453.5 174.5q198 0 332 -78v-325q-129 129 -330 129q-148 0 -231.5 -98t-83.5 -257q0 -161 90 -257.5t238 -96.5q104 0 181 30t161 97v-311q-149 -90 -357 -90q-285 0 -455.5 174.5t-170.5 453.5z" />
<glyph unicode="D" horiz-adv-x="1280" d="M125 12v1194q199 31 407 31q205 0 357 -68t238.5 -208t86.5 -340q0 -163 -51 -286.5t-144 -199.5t-217.5 -113.5t-277.5 -37.5q-267 0 -399 28zM430 256q56 -6 131 -6q158 0 249 93t91 278q0 167 -96 251t-250 84q-69 0 -125 -6v-694z" />
<glyph unicode="E" horiz-adv-x="1034" d="M125 0v1217h805v-269h-504v-209h459v-262h-459v-209h518v-268h-819z" />
<glyph unicode="F" horiz-adv-x="923" d="M125 0v1217h739v-269h-434v-258h387v-264h-387v-426h-305z" />
<glyph unicode="G" horiz-adv-x="1202" d="M66 608q0 184 79 327t222.5 222.5t328.5 79.5q229 0 377 -92v-314q-65 60 -160 97t-196 37q-157 0 -247.5 -97t-90.5 -260q0 -167 93.5 -266.5t244.5 -99.5q71 0 104 10v317h299v-497q-68 -45 -182.5 -68.5t-228.5 -23.5q-296 0 -469.5 167.5t-173.5 460.5z" />
<glyph unicode="H" horiz-adv-x="1347" d="M125 0v1217h305v-478h488v478h305v-1217h-305v469h-488v-469h-305z" />
<glyph unicode="I" horiz-adv-x="555" d="M125 0v1217h305v-1217h-305z" />
<glyph unicode="J" horiz-adv-x="806" d="M41 47v297q107 -84 221 -84q63 0 98 24t35 91v842h305v-877q0 -176 -106 -268t-289 -92q-161 0 -264 67z" />
<glyph unicode="K" horiz-adv-x="1183" d="M125 0v1217h305v-1217h-305zM436 602l371 615h352l-391 -590l418 -627h-359z" />
<glyph unicode="L" horiz-adv-x="933" d="M125 0v1217h305v-949h463v-268h-768z" />
<glyph unicode="M" horiz-adv-x="1691" d="M68 0l165 1217h365l254 -824l240 824h366l166 -1217h-303l-107 764l-235 -764h-270l-236 764l-104 -764h-301z" />
<glyph unicode="N" horiz-adv-x="1341" d="M125 0v1217h307l490 -746v746h295v-1217h-289l-508 731v-731h-295z" />
<glyph unicode="O" horiz-adv-x="1398" d="M66 608q0 182 84.5 326.5t228.5 223.5t319 79t320 -79t230 -224t85 -326q0 -136 -50 -254t-135.5 -199.5t-202 -128t-247.5 -46.5t-247 46.5t-201 128t-134.5 199.5t-49.5 254zM379 608q0 -158 90 -256t229 -98q141 0 230.5 98t89.5 256q0 159 -89.5 257t-230.5 98 q-139 0 -229 -98.5t-90 -256.5z" />
<glyph unicode="P" horiz-adv-x="1077" d="M125 0v1206q198 31 397 31q236 0 376 -113t140 -336q0 -115 -41.5 -201.5t-113 -136t-158 -74t-186.5 -24.5q-59 0 -109 4v-356h-305zM430 616q28 -4 92 -4q98 0 153.5 43t55.5 133q0 91 -59 134t-150 43q-48 0 -92 -7v-342z" />
<glyph unicode="Q" horiz-adv-x="1398" d="M66 608q0 182 84.5 326.5t228.5 223.5t319 79t320 -79t230 -224t85 -326q0 -197 -99 -348t-265 -225l276 -330h-354l-229 277q-166 8 -301.5 88.5t-215 221.5t-79.5 316zM379 608q0 -158 90 -256t229 -98q141 0 230.5 98t89.5 256q0 159 -89.5 257t-230.5 98 q-139 0 -229 -98.5t-90 -256.5z" />
<glyph unicode="R" horiz-adv-x="1136" d="M125 0v1210q162 27 385 27q242 0 381 -105.5t139 -316.5q0 -124 -61 -216.5t-158 -143.5l326 -455h-359l-262 389h-88v-389h-303zM428 639h76q217 0 217 168q0 87 -57.5 126.5t-151.5 39.5q-52 0 -84 -4v-330z" />
<glyph unicode="S" horiz-adv-x="937" d="M53 860q0 176 118.5 276.5t303.5 100.5q187 0 336 -88v-299q-153 127 -324 127q-67 0 -102 -27t-35 -71q0 -54 45 -81t154 -55q184 -49 260 -139t76 -246q0 -96 -36.5 -170t-101.5 -118.5t-148.5 -67t-182.5 -22.5q-97 0 -186 23.5t-152 62.5v299q165 -125 336 -125 q172 0 172 108q0 52 -42.5 78.5t-144.5 52.5q-186 47 -266 136.5t-80 244.5z" />
<glyph unicode="T" horiz-adv-x="1093" d="M31 948v269h1032v-269h-365v-948h-303v948h-364z" />
<glyph unicode="U" horiz-adv-x="1257" d="M111 436v781h305v-713q0 -145 55.5 -208t163.5 -63q75 0 192 17v967h306v-1174q-78 -25 -229.5 -44t-268.5 -19q-87 0 -162 14t-143 47.5t-115.5 84.5t-75.5 130t-28 180z" />
<glyph unicode="V" horiz-adv-x="1275" d="M0 1217h328l313 -908l309 908h326l-453 -1217h-370z" />
<glyph unicode="W" horiz-adv-x="1792" d="M41 1217h305l193 -865l206 865h308l211 -865l190 865h297l-289 -1217h-379l-190 788l-188 -788h-375z" />
<glyph unicode="X" horiz-adv-x="1202" d="M0 0l432 629l-397 588h352l217 -343l225 343h340l-397 -588l430 -629h-350l-250 383l-260 -383h-342z" />
<glyph unicode="Y" horiz-adv-x="1177" d="M0 1217h336l258 -484l246 484h338l-439 -775v-442h-303v442z" />
<glyph unicode="Z" horiz-adv-x="1044" d="M61 948v269h910v-269l-559 -680h569v-268h-918v268l547 680h-549z" />
<glyph unicode="[" horiz-adv-x="776" d="M211 -283v1676h463v-228h-193v-1220h193v-228h-463z" />
<glyph unicode="\" horiz-adv-x="940" d="M23 1393h299l643 -1676h-299z" />
<glyph unicode="]" horiz-adv-x="776" d="M102 -55h193v1220h-193v228h463v-1676h-463v228z" />
<glyph unicode="^" horiz-adv-x="933" d="M41 692l299 525h254l299 -525h-275l-151 275l-152 -275h-274z" />
<glyph unicode="_" horiz-adv-x="946" d="M102 -80h742v-237h-742v237z" />
<glyph unicode="`" horiz-adv-x="1024" d="M293 1362h262l174 -311h-262z" />
<glyph unicode="a" horiz-adv-x="964" d="M70 268q0 143 104.5 213t298.5 70h98v37q0 56 -43 82t-112 26q-142 0 -264 -75v245q130 76 317 76q389 0 389 -342v-580q-180 -40 -377 -40q-411 0 -411 288zM358 283q0 -47 31.5 -71t87.5 -24q51 0 94 9v178h-77q-136 0 -136 -92z" />
<glyph unicode="b" horiz-adv-x="1120" d="M125 53v1340h291v-496q78 45 200 45q194 0 320.5 -125.5t126.5 -327.5q0 -232 -140 -370.5t-409 -138.5q-207 0 -389 73zM416 246q51 -19 110 -19q106 0 173 61.5t67 192.5q0 87 -57 143t-144 56q-86 0 -149 -47v-387z" />
<glyph unicode="c" horiz-adv-x="884" d="M57 459q0 214 136 348.5t354 134.5q149 0 262 -68v-270q-101 84 -229 84q-105 0 -167.5 -60t-62.5 -165q0 -101 64 -165.5t176 -64.5q128 0 223 80v-266q-102 -67 -266 -67q-229 0 -359.5 130.5t-130.5 348.5z" />
<glyph unicode="d" horiz-adv-x="1112" d="M57 459q0 216 130 349.5t348 133.5q103 0 161 -24v475h291v-1366q-174 -47 -401 -47q-244 0 -386.5 125t-142.5 354zM352 469q0 -116 64 -179t180 -63q48 0 100 9v426q-53 26 -135 26q-97 0 -153 -58.5t-56 -160.5z" />
<glyph unicode="e" horiz-adv-x="989" d="M57 446q0 229 127 362.5t328 133.5q110 0 190.5 -35t126 -98.5t66 -140.5t20.5 -172v-125h-577v-4q18 -69 89 -104.5t159 -35.5q163 0 305 74v-240q-122 -81 -338 -81q-231 0 -363.5 126t-132.5 340zM340 535h309q0 74 -34.5 122t-108.5 48q-68 0 -111 -46t-55 -124z" />
<glyph unicode="f" horiz-adv-x="679" d="M16 680v242h146v112q0 192 97 285.5t261 93.5q108 0 197 -45v-264q-75 45 -154 45q-110 0 -110 -111v-116h215v-242h-215v-680h-291v680h-146z" />
<glyph unicode="g" horiz-adv-x="1087" d="M57 473q0 218 137.5 343.5t376.5 125.5q212 0 400 -74v-845q0 -94 -30 -168t-77 -119t-111.5 -74t-127 -40t-129.5 -11q-173 0 -326 72v268q90 -53 163 -74.5t163 -21.5q84 0 134 44t50 124v20q-56 -29 -164 -29q-207 0 -333 120.5t-126 338.5zM352 473q0 -101 56 -159 t147 -58q54 0 125 23v395q-43 16 -109 16q-103 0 -161 -54t-58 -163z" />
<glyph unicode="h" horiz-adv-x="1095" d="M125 0v1393h291v-488q87 37 211 37q77 0 139 -19.5t112.5 -62t78.5 -118t28 -179.5v-563h-291v551q0 131 -131 131q-91 0 -147 -20v-662h-291z" />
<glyph unicode="i" horiz-adv-x="540" d="M102 1198q0 70 49.5 119t118.5 49q67 0 116.5 -49t49.5 -119q0 -68 -49.5 -117t-116.5 -49q-69 0 -118.5 48.5t-49.5 117.5zM125 0v922h291v-922h-291z" />
<glyph unicode="j" horiz-adv-x="540" d="M-115 -117q80 -26 131 -26q56 0 82.5 24.5t26.5 91.5v949h291v-998q0 -81 -27.5 -142.5t-76.5 -98t-111.5 -54.5t-137.5 -18q-87 0 -178 31v241zM102 1198q0 70 49.5 119t118.5 49q67 0 116.5 -49t49.5 -119q0 -68 -49.5 -117t-116.5 -49q-69 0 -118.5 48.5t-49.5 117.5z " />
<glyph unicode="k" horiz-adv-x="1077" d="M125 0v1393h291v-1393h-291zM426 500l305 422h338l-324 -418l332 -504h-329z" />
<glyph unicode="l" horiz-adv-x="540" d="M125 0v1393h291v-1393h-291z" />
<glyph unicode="m" horiz-adv-x="1589" d="M125 0v860q219 82 430 82q166 0 256 -74q69 35 138.5 54.5t164.5 19.5q86 0 150 -18t113 -59t74.5 -114.5t25.5 -177.5v-573h-291v561q0 61 -25 94t-92 33q-75 0 -139 -31q14 -33 14 -75v-582h-291v561q0 60 -25 93.5t-89 33.5q-53 0 -123 -18v-670h-291z" />
<glyph unicode="n" horiz-adv-x="1095" d="M125 0v856q99 39 225 62.5t234 23.5q195 0 298 -86t103 -293v-563h-291v551q0 131 -131 131q-82 0 -147 -23v-659h-291z" />
<glyph unicode="o" horiz-adv-x="1091" d="M57 461q0 212 139.5 346.5t348.5 134.5q137 0 248.5 -59.5t176 -170t64.5 -251.5t-64.5 -251.5t-176 -170t-248.5 -59.5q-209 0 -348.5 134.5t-139.5 346.5zM350 461q0 -107 54.5 -169.5t140.5 -62.5q88 0 142 62.5t54 169.5t-54 169t-142 62q-86 0 -140.5 -62 t-54.5 -169z" />
<glyph unicode="p" horiz-adv-x="1107" d="M115 -369v1227q84 36 198.5 60t231.5 24q226 0 366 -123.5t140 -333.5q0 -243 -135 -374t-381 -131q-79 0 -129 12v-361h-291zM406 246q47 -15 104 -15q109 0 177.5 59.5t68.5 182.5q0 100 -60.5 154.5t-156.5 54.5q-77 0 -133 -20v-416z" />
<glyph unicode="q" horiz-adv-x="1103" d="M57 459q0 222 140 352.5t387 130.5q207 0 403 -76v-1235h-291v367q-67 -18 -157 -18q-220 0 -351 129t-131 350zM354 459q0 -105 58 -166.5t155 -61.5q58 0 129 23v416q-58 16 -112 16q-107 0 -168.5 -57.5t-61.5 -169.5z" />
<glyph unicode="r" horiz-adv-x="735" d="M125 0v854q158 82 377 82q105 0 205 -27v-280q-79 35 -193 35q-41 0 -98 -13v-651h-291z" />
<glyph unicode="s" horiz-adv-x="860" d="M80 631q0 154 103.5 232.5t269.5 78.5q84 0 147.5 -17t128.5 -53v-247q-136 86 -264 86q-103 0 -103 -60q0 -26 22 -41t73 -22q98 -16 164 -42.5t103.5 -66.5t53 -87.5t15.5 -112.5q0 -149 -102.5 -224t-280.5 -75q-188 0 -314 75v256q68 -45 153.5 -72.5t151.5 -27.5 q109 0 109 57q0 29 -25 45t-88 25q-167 23 -242 92.5t-75 200.5z" />
<glyph unicode="t" horiz-adv-x="765" d="M0 680v242h137v227h289v-227h264v-242h-264v-303q0 -72 31.5 -100.5t89.5 -28.5q92 0 168 51v-266q-100 -53 -250 -53q-66 0 -122.5 16.5t-104 52t-74.5 98t-27 146.5v387h-137z" />
<glyph unicode="u" horiz-adv-x="1069" d="M106 346v576h291v-549q0 -82 30 -119t118 -37q49 0 108 12v693h291v-889q-75 -24 -189.5 -38.5t-209.5 -14.5q-105 0 -181.5 17t-136.5 57.5t-90.5 113.5t-30.5 178z" />
<glyph unicode="v" horiz-adv-x="1067" d="M10 922h316l213 -633l213 633h305l-352 -922h-343z" />
<glyph unicode="w" horiz-adv-x="1470" d="M10 922h299l150 -598l157 598h246l156 -598l151 598h291l-262 -922h-317l-148 539l-147 -539h-314z" />
<glyph unicode="x" horiz-adv-x="1030" d="M8 0l340 473l-319 449h346l145 -230l148 230h333l-319 -447l340 -475h-338l-178 256l-174 -256h-324z" />
<glyph unicode="y" horiz-adv-x="1054" d="M10 922h314l211 -600l206 600h303l-503 -1291h-287l133 351z" />
<glyph unicode="z" horiz-adv-x="890" d="M59 0v233l396 449h-385v240h737v-242l-399 -440h434v-240h-783z" />
<glyph unicode="{" horiz-adv-x="821" d="M115 436v238h55q152 0 152 168v241q0 153 80 231.5t219 78.5h118v-228h-73q-24 0 -39.5 -6.5t-21.5 -20t-7.5 -25.5t-1.5 -32v-217q0 -134 -77.5 -220t-188.5 -89q111 -3 188.5 -89t77.5 -220v-217q0 -20 1.5 -32t7.5 -25.5t21.5 -20t39.5 -6.5h73v-228h-118 q-139 0 -219 78.5t-80 231.5v241q0 168 -152 168h-55z" />
<glyph unicode="|" horiz-adv-x="632" d="M180 -283v1676h273v-1676h-273z" />
<glyph unicode="}" horiz-adv-x="821" d="M82 -55h74q24 0 39 6.5t21 20.5t7.5 25t1.5 32v217q0 134 78 220t189 89q-111 3 -189 89t-78 220v217q0 21 -1.5 32t-7.5 25t-21 20.5t-39 6.5h-74v228h119q139 0 219 -78.5t80 -231.5v-241q0 -168 151 -168h56v-238h-56q-151 0 -151 -168v-241q0 -153 -80 -231.5 t-219 -78.5h-119v228z" />
<glyph unicode="~" horiz-adv-x="854" d="M72 397q0 156 56.5 243t160.5 87q40 0 75.5 -15.5t56.5 -33.5t46 -33.5t47 -15.5q31 0 46 20.5t15 67.5h207q0 -156 -56.5 -243t-160.5 -87q-40 0 -75 15.5t-55.5 33.5t-45.5 33.5t-47 15.5q-63 0 -63 -88h-207z" />
<glyph unicode="&#xa1;" horiz-adv-x="524" d="M76 770q0 76 54 130t130 54q77 0 131.5 -54t54.5 -130t-55 -131t-131 -55t-130 54.5t-54 131.5zM117 -279v795h291v-795h-291z" />
<glyph unicode="&#xa2;" horiz-adv-x="878" d="M51 459q0 177 95 302t257 165v184h226v-174q89 -11 174 -62v-270q-101 84 -230 84q-105 0 -167 -60t-62 -165q0 -101 64 -165.5t176 -64.5q128 0 223 80v-266q-72 -48 -178 -61v-181h-226v189q-168 37 -260 159.5t-92 305.5z" />
<glyph unicode="&#xa3;" horiz-adv-x="933" d="M51 -2v264q68 32 99.5 83.5t39.5 141.5h-139v230h142v96q0 107 31 189.5t86.5 133t128.5 76t161 25.5t163 -24t114 -60v-303q-96 106 -240 106q-156 0 -156 -165v-74h271v-230h-273q-10 -74 -45 -133t-78 -92h537v-264h-842z" />
<glyph unicode="&#xa4;" horiz-adv-x="1191" d="M109 244l149 151q-65 100 -65 230q0 133 67 231l-149 150l106 106l150 -151q103 67 229 67q129 0 227 -67l152 149l106 -106l-149 -150q67 -98 67 -229q0 -134 -67 -232l151 -147l-108 -107l-150 150q-104 -68 -229 -68t-229 68l-152 -152zM444 623q0 -68 44 -114 t108 -46q66 0 110 46t44 114q0 70 -44 115.5t-110 45.5q-65 0 -108.5 -45.5t-43.5 -115.5z" />
<glyph unicode="&#xa5;" horiz-adv-x="1136" d="M20 1217h326l227 -482l215 482h328l-330 -629h179v-144h-246v-104h246v-143h-246v-197h-303v197h-246v143h246v104h-246v144h180z" />
<glyph unicode="&#xa6;" horiz-adv-x="632" d="M180 -283v699h273v-699h-273zM180 694v699h273v-699h-273z" />
<glyph unicode="&#xa7;" horiz-adv-x="1007" d="M61 483q0 184 175 265q-72 72 -72 196q0 142 104 217.5t269 75.5q84 0 147.5 -17t128.5 -53v-247q-136 86 -264 86q-103 0 -103 -60q0 -26 30.5 -43.5t127.5 -48.5q87 -28 146 -56.5t105.5 -68.5t68.5 -93t22 -122q0 -96 -47 -162.5t-129 -101.5q74 -71 74 -197 q0 -142 -104 -217.5t-269 -75.5q-84 0 -147.5 17t-128.5 53v248q136 -86 264 -86q102 0 102 59q0 26 -30.5 43.5t-127.5 48.5q-87 28 -146 56.5t-105.5 68.5t-68.5 93t-22 122zM330 512q0 -50 37.5 -75.5t158.5 -65.5l31 -11q57 25 89 54t32 71q0 48 -40.5 77.5t-156.5 64.5 l-30 8q-121 -49 -121 -123z" />
<glyph unicode="&#xa8;" horiz-adv-x="1024" d="M160 1192q0 66 46 112t111 46t112.5 -46.5t47.5 -111.5q0 -66 -47.5 -113t-112.5 -47t-111 47t-46 113zM545 1192q0 66 46 112t111 46q66 0 113 -46t47 -112t-47 -113t-113 -47q-65 0 -111 47t-46 113z" />
<glyph unicode="&#xa9;" horiz-adv-x="1429" d="M92 608q0 175 80 319t223 227t320 83q133 0 249 -49t197.5 -132.5t128.5 -200t47 -247.5q0 -175 -79.5 -318.5t-222.5 -226.5t-320 -83t-320 83t-223 226.5t-80 318.5zM174 608q0 -242 153 -397.5t388 -155.5t387.5 155.5t152.5 397.5t-152.5 397.5t-387.5 155.5 t-388 -155.5t-153 -397.5zM346 608q0 183 113 296.5t301 113.5q118 0 207 -55v-248q-81 84 -195 84q-81 0 -130.5 -53t-49.5 -138t49.5 -137.5t130.5 -52.5q57 0 110 23t89 61v-248q-89 -55 -211 -55q-188 0 -301 113t-113 296z" />
<glyph unicode="&#xaa;" horiz-adv-x="727" d="M45 723q0 108 81 161.5t228 53.5h74v16q0 82 -117 82q-108 0 -200 -57v201q97 57 241 57q66 0 119.5 -13.5t96.5 -42.5t67 -81.5t24 -124.5v-443q-150 -30 -297 -30q-317 0 -317 221zM287 735q0 -61 80 -61q31 0 61 6v117h-51q-90 0 -90 -62z" />
<glyph unicode="&#xab;" horiz-adv-x="1038" d="M61 440l252 324h275l-250 -324l250 -323h-275zM451 440l251 324h275l-250 -324l250 -323h-275z" />
<glyph unicode="&#xad;" horiz-adv-x="727" d="M70 406v258h587v-258h-587z" />
<glyph unicode="&#xae;" horiz-adv-x="931" d="M82 848q0 165 109 277t274 112q166 0 275.5 -112t109.5 -277q0 -164 -109.5 -275.5t-275.5 -111.5q-165 0 -274 111.5t-109 275.5zM162 848q0 -133 85.5 -224.5t217.5 -91.5q133 0 219 91.5t86 224.5q0 135 -86 226t-219 91q-132 0 -217.5 -91t-85.5 -226zM311 659v379 q70 17 148 17q80 0 130 -37.5t50 -106.5q0 -44 -22 -74.5t-58 -43.5l105 -134h-134l-77 111h-25v-111h-117zM428 860h27q61 0 61 43q0 45 -55 45q-17 0 -33 -4v-84z" />
<glyph unicode="&#xaf;" horiz-adv-x="1024" d="M266 1057v209h490v-209h-490z" />
<glyph unicode="&#xb0;" horiz-adv-x="626" d="M51 979q0 109 76 183.5t186 74.5t186 -74.5t76 -183.5t-76 -183.5t-186 -74.5t-186 74.5t-76 183.5zM203 979q0 -49 29.5 -82t80.5 -33t81 33t30 82t-30 82t-81 33t-80.5 -33t-29.5 -82z" />
<glyph unicode="&#xb1;" horiz-adv-x="940" d="M102 160v211h736v-211h-736zM102 651v211h263v201h210v-201h263v-211h-263v-200h-210v200h-263z" />
<glyph unicode="&#xb2;" horiz-adv-x="583" d="M23 471v166q135 103 207.5 177.5t72.5 131.5q0 78 -84 78q-45 0 -97.5 -23t-90.5 -55v205q97 78 250 78q117 0 187.5 -61.5t70.5 -168.5q0 -94 -56 -170t-174 -165h248v-193h-534z" />
<glyph unicode="&#xb3;" horiz-adv-x="559" d="M27 514v217q86 -82 196 -82q76 0 76 53q0 37 -31.5 47.5t-107.5 10.5v155q127 0 127 64q0 49 -66 49q-91 0 -176 -72v209q100 64 229 64q110 0 176 -52t66 -153q0 -65 -39.5 -114.5t-97.5 -63.5q68 -18 108.5 -62.5t40.5 -109.5q0 -60 -26 -104t-69.5 -67t-89 -33.5 t-95.5 -10.5q-120 0 -221 55z" />
<glyph unicode="&#xb4;" horiz-adv-x="1024" d="M293 1051l174 311h262l-174 -311h-262z" />
<glyph unicode="&#xb5;" horiz-adv-x="1069" d="M106 -369v1291h291v-549q0 -82 30 -119t118 -37q49 0 108 12v693h291v-889q-74 -23 -185 -38t-188 -15q-112 0 -174 26v-375h-291z" />
<glyph unicode="&#xb6;" horiz-adv-x="1062" d="M41 840q0 91 33.5 164t91.5 119t132 70t157 24h217v-1434h-217v680q-83 0 -157 24t-132 70t-91.5 119t-33.5 164zM741 -217v1434h217v-1434h-217z" />
<glyph unicode="&#xb7;" horiz-adv-x="575" d="M102 535q0 77 54.5 131.5t130.5 54.5q77 0 131.5 -54.5t54.5 -131.5q0 -76 -54.5 -130.5t-131.5 -54.5t-131 54t-54 131z" />
<glyph unicode="&#xb8;" horiz-adv-x="1024" d="M315 -299q76 70 118 156.5t42 175.5h234q0 -98 -41.5 -193t-104.5 -139h-248z" />
<glyph unicode="&#xb9;" horiz-adv-x="444" d="M23 971v200l354 58v-758h-227v514z" />
<glyph unicode="&#xba;" horiz-adv-x="827" d="M41 870q0 162 106.5 264.5t266.5 102.5t266 -102.5t106 -264.5t-106 -265t-266 -103t-266.5 103t-106.5 265zM283 870q0 -71 36.5 -112t94.5 -41q57 0 93 41t36 112t-36 112.5t-93 41.5q-58 0 -94.5 -41.5t-36.5 -112.5z" />
<glyph unicode="&#xbb;" horiz-adv-x="1038" d="M61 117l250 323l-250 324h275l252 -324l-252 -323h-275zM451 117l249 323l-249 324h274l252 -324l-252 -323h-274z" />
<glyph unicode="&#xbc;" horiz-adv-x="1513" d="M82 971v200l354 58v-758h-227v514zM233 0l732 1217h192l-731 -1217h-193zM750 147v164l342 434h213v-434h106v-164h-106v-147h-213v147h-342zM928 311h164v203z" />
<glyph unicode="&#xbd;" horiz-adv-x="1538" d="M82 971v200l354 58v-758h-227v514zM233 0l732 1217h192l-731 -1217h-193zM901 0v166q136 104 208.5 178t72.5 131q0 78 -84 78q-45 0 -98 -23t-91 -55v205q97 78 250 78q117 0 187.5 -61.5t70.5 -168.5q0 -94 -55.5 -170.5t-173.5 -164.5h248v-193h-535z" />
<glyph unicode="&#xbe;" horiz-adv-x="1593" d="M102 514v217q86 -82 197 -82q76 0 76 53q0 37 -31.5 47.5t-107.5 10.5v155q126 0 126 64q0 49 -65 49q-91 0 -176 -72v209q100 64 229 64q110 0 176 -52t66 -153q0 -65 -39.5 -114.5t-97.5 -63.5q68 -18 108.5 -62.5t40.5 -109.5q0 -60 -26 -104t-69.5 -67t-89 -33.5 t-95.5 -10.5q-121 0 -222 55zM326 0l731 1217h192l-731 -1217h-192zM829 147v164l342 434h213v-434h107v-164h-107v-147h-213v147h-342zM1008 311h163v203z" />
<glyph unicode="&#xbf;" horiz-adv-x="782" d="M31 53q0 68 21.5 125t54 94t76 66.5t81.5 44.5t78 25v108h268v-248q-61 -17 -92 -26t-71 -23t-57.5 -26t-36 -29.5t-25 -38.5t-6.5 -49q0 -56 36 -83.5t99 -27.5q78 0 148.5 32.5t156.5 96.5v-274q-58 -51 -149.5 -85t-200.5 -34q-82 0 -148.5 18.5t-120 58.5t-83 110 t-29.5 165zM287 774q0 75 55 127.5t137 52.5q72 0 125 -53.5t53 -126.5q0 -79 -52.5 -134.5t-125.5 -55.5q-83 0 -137.5 55t-54.5 135z" />
<glyph unicode="&#xc0;" d="M0 0l473 1217h367l473 -1217h-334l-82 231h-491l-84 -231h-322zM346 1622h262l172 -309h-262zM498 479h311l-154 432z" />
<glyph unicode="&#xc1;" d="M0 0l473 1217h367l473 -1217h-334l-82 231h-491l-84 -231h-322zM498 479h311l-154 432zM528 1313l172 309h263l-172 -309h-263z" />
<glyph unicode="&#xc2;" d="M0 0l473 1217h367l473 -1217h-334l-82 231h-491l-84 -231h-322zM311 1309l240 315h197l239 -315h-229l-109 147l-108 -147h-230zM498 479h311l-154 432z" />
<glyph unicode="&#xc3;" d="M0 0l473 1217h367l473 -1217h-334l-82 231h-491l-84 -231h-322zM348 1313q0 125 49.5 199.5t137.5 74.5q44 0 80.5 -19.5t64.5 -39t51 -19.5q28 0 40.5 16t12.5 54h179q0 -125 -49.5 -199.5t-137.5 -74.5q-44 0 -80 19.5t-64 38.5t-50 19q-29 0 -42.5 -16t-13.5 -53h-178 zM498 479h311l-154 432z" />
<glyph unicode="&#xc4;" d="M0 0l473 1217h367l473 -1217h-334l-82 231h-491l-84 -231h-322zM303 1444q0 67 46.5 114.5t111.5 47.5t112.5 -47.5t47.5 -114.5q0 -64 -47.5 -110t-112.5 -46t-111.5 46t-46.5 110zM498 479h311l-154 432zM688 1444q0 67 46.5 114.5t111.5 47.5q66 0 113 -47.5 t47 -114.5q0 -64 -47 -110t-113 -46q-65 0 -111.5 46t-46.5 110z" />
<glyph unicode="&#xc5;" d="M0 0l473 1217h367l473 -1217h-334l-82 231h-491l-84 -231h-322zM444 1479q0 87 57.5 144.5t153.5 57.5q97 0 155 -57.5t58 -144.5q0 -89 -58 -147t-155 -58q-96 0 -153.5 58.5t-57.5 146.5zM498 479h311l-154 432zM578 1479q0 -35 20.5 -58.5t56.5 -23.5q37 0 58.5 23.5 t21.5 58.5q0 34 -21.5 57t-58.5 23q-35 0 -56 -23t-21 -57z" />
<glyph unicode="&#xc6;" horiz-adv-x="1777" d="M0 0l672 1217h1001v-269h-504v-209h459v-262h-459v-209h519v-268h-820v231h-419l-127 -231h-322zM586 479h282v516z" />
<glyph unicode="&#xc7;" horiz-adv-x="1128" d="M66 608q0 280 172.5 454.5t453.5 174.5q198 0 332 -78v-325q-129 129 -330 129q-148 0 -231.5 -98t-83.5 -257q0 -161 90 -257.5t238 -96.5q104 0 181 30t161 97v-311q-130 -78 -291 -88q-11 -88 -50 -165.5t-94 -115.5h-247q141 132 157 297q-213 49 -335.5 212.5 t-122.5 397.5z" />
<glyph unicode="&#xc8;" horiz-adv-x="1034" d="M125 0v1217h805v-269h-504v-209h459v-262h-459v-209h518v-268h-819zM233 1612h263l172 -309h-262z" />
<glyph unicode="&#xc9;" horiz-adv-x="1034" d="M125 0v1217h805v-269h-504v-209h459v-262h-459v-209h518v-268h-819zM375 1313l172 309h262l-172 -309h-262z" />
<glyph unicode="&#xca;" horiz-adv-x="1034" d="M125 0v1217h805v-269h-504v-209h459v-262h-459v-209h518v-268h-819zM201 1309l239 315h197l240 -315h-230l-108 147l-109 -147h-229z" />
<glyph unicode="&#xcb;" horiz-adv-x="1034" d="M125 0v1217h805v-269h-504v-209h459v-262h-459v-209h518v-268h-819zM184 1444q0 67 46.5 114.5t111.5 47.5t112.5 -47.5t47.5 -114.5q0 -64 -47.5 -110t-112.5 -46t-111.5 46t-46.5 110zM569 1444q0 67 46.5 114.5t111.5 47.5q66 0 113 -47.5t47 -114.5q0 -64 -47 -110 t-113 -46q-65 0 -111.5 46t-46.5 110z" />
<glyph unicode="&#xcc;" horiz-adv-x="555" d="M-23 1622h263l172 -309h-262zM125 0v1217h305v-1217h-305z" />
<glyph unicode="&#xcd;" horiz-adv-x="555" d="M125 0v1217h305v-1217h-305zM129 1313l172 309h262l-172 -309h-262z" />
<glyph unicode="&#xce;" horiz-adv-x="555" d="M-61 1309l239 315h197l239 -315h-229l-109 147l-108 -147h-229zM125 0v1217h305v-1217h-305z" />
<glyph unicode="&#xcf;" horiz-adv-x="555" d="M-76 1444q0 67 46.5 114.5t111.5 47.5t112.5 -47.5t47.5 -114.5q0 -64 -47.5 -110t-112.5 -46t-111.5 46t-46.5 110zM125 0v1217h305v-1217h-305zM309 1444q0 67 46.5 114.5t111.5 47.5q66 0 113 -47.5t47 -114.5q0 -64 -47 -110t-113 -46q-65 0 -111.5 46t-46.5 110z " />
<glyph unicode="&#xd0;" horiz-adv-x="1302" d="M41 485v246h106v475q199 31 408 31q205 0 357 -68t238.5 -208t86.5 -340q0 -163 -51 -286.5t-144 -199.5t-217.5 -113.5t-277.5 -37.5q-268 0 -400 28v473h-106zM453 256q55 -6 131 -6q158 0 249 93t91 278q0 167 -96 251t-250 84q-70 0 -125 -6v-219h221v-246h-221v-229 z" />
<glyph unicode="&#xd1;" horiz-adv-x="1341" d="M125 0v1217h307l490 -746v746h295v-1217h-289l-508 731v-731h-295zM371 1313q0 125 49 199.5t137 74.5q44 0 81 -19.5t65 -39t51 -19.5q28 0 40.5 16t12.5 54h178q0 -125 -49 -199.5t-137 -74.5q-44 0 -80.5 19.5t-64.5 38.5t-50 19q-28 0 -41.5 -16t-13.5 -53h-178z" />
<glyph unicode="&#xd2;" horiz-adv-x="1398" d="M66 608q0 182 84.5 326.5t228.5 223.5t319 79t320 -79t230 -224t85 -326q0 -136 -50 -254t-135.5 -199.5t-202 -128t-247.5 -46.5t-247 46.5t-201 128t-134.5 199.5t-49.5 254zM379 608q0 -158 90 -256t229 -98q141 0 230.5 98t89.5 256q0 159 -89.5 257t-230.5 98 q-139 0 -229 -98.5t-90 -256.5zM399 1622h263l172 -309h-263z" />
<glyph unicode="&#xd3;" horiz-adv-x="1398" d="M66 608q0 182 84.5 326.5t228.5 223.5t319 79t320 -79t230 -224t85 -326q0 -136 -50 -254t-135.5 -199.5t-202 -128t-247.5 -46.5t-247 46.5t-201 128t-134.5 199.5t-49.5 254zM379 608q0 -158 90 -256t229 -98q141 0 230.5 98t89.5 256q0 159 -89.5 257t-230.5 98 q-139 0 -229 -98.5t-90 -256.5zM551 1313l172 309h262l-172 -309h-262z" />
<glyph unicode="&#xd4;" horiz-adv-x="1398" d="M66 608q0 182 84.5 326.5t228.5 223.5t319 79t320 -79t230 -224t85 -326q0 -136 -50 -254t-135.5 -199.5t-202 -128t-247.5 -46.5t-247 46.5t-201 128t-134.5 199.5t-49.5 254zM360 1309l240 315h197l239 -315h-229l-109 147l-108 -147h-230zM379 608q0 -158 90 -256 t229 -98q141 0 230.5 98t89.5 256q0 159 -89.5 257t-230.5 98q-139 0 -229 -98.5t-90 -256.5z" />
<glyph unicode="&#xd5;" horiz-adv-x="1398" d="M66 608q0 182 84.5 326.5t228.5 223.5t319 79t320 -79t230 -224t85 -326q0 -136 -50 -254t-135.5 -199.5t-202 -128t-247.5 -46.5t-247 46.5t-201 128t-134.5 199.5t-49.5 254zM379 608q0 -158 90 -256t229 -98q141 0 230.5 98t89.5 256q0 159 -89.5 257t-230.5 98 q-139 0 -229 -98.5t-90 -256.5zM391 1313q0 125 49.5 199.5t137.5 74.5q44 0 80.5 -19.5t64.5 -39t51 -19.5q28 0 40.5 16t12.5 54h179q0 -125 -49.5 -199.5t-137.5 -74.5q-44 0 -80 19.5t-64 38.5t-50 19q-29 0 -42.5 -16t-13.5 -53h-178z" />
<glyph unicode="&#xd6;" horiz-adv-x="1398" d="M66 608q0 182 84.5 326.5t228.5 223.5t319 79t320 -79t230 -224t85 -326q0 -136 -50 -254t-135.5 -199.5t-202 -128t-247.5 -46.5t-247 46.5t-201 128t-134.5 199.5t-49.5 254zM342 1444q0 67 46.5 114.5t111.5 47.5t112 -47.5t47 -114.5q0 -64 -47 -110t-112 -46 t-111.5 46t-46.5 110zM379 608q0 -158 90 -256t229 -98q141 0 230.5 98t89.5 256q0 159 -89.5 257t-230.5 98q-139 0 -229 -98.5t-90 -256.5zM727 1444q0 67 46.5 114.5t111.5 47.5q66 0 112.5 -47.5t46.5 -114.5q0 -65 -46.5 -110.5t-112.5 -45.5q-65 0 -111.5 46 t-46.5 110z" />
<glyph unicode="&#xd7;" horiz-adv-x="815" d="M61 395l203 203l-203 203l144 143l203 -203l202 203l144 -143l-203 -203l203 -203l-144 -143l-202 203l-203 -203z" />
<glyph unicode="&#xd8;" horiz-adv-x="1423" d="M78 0l158 182q-158 176 -158 426q0 136 49.5 254t134.5 200t201.5 128.5t247.5 46.5q192 0 346 -96l65 76h224l-158 -185q158 -176 158 -424q0 -136 -50 -254t-135.5 -199.5t-202 -128t-247.5 -46.5q-187 0 -346 94l-64 -74h-223zM383 608q0 -115 47 -198l444 518 q-70 43 -163 43q-139 0 -233.5 -102.5t-94.5 -260.5zM547 287q71 -41 164 -41q141 0 234 101.5t93 260.5q0 112 -45 197z" />
<glyph unicode="&#xd9;" horiz-adv-x="1257" d="M111 436v781h305v-713q0 -145 55.5 -208t163.5 -63q75 0 192 17v967h306v-1174q-78 -25 -229.5 -44t-268.5 -19q-87 0 -162 14t-143 47.5t-115.5 84.5t-75.5 130t-28 180zM326 1622h262l172 -309h-262z" />
<glyph unicode="&#xda;" horiz-adv-x="1257" d="M111 436v781h305v-713q0 -145 55.5 -208t163.5 -63q75 0 192 17v967h306v-1174q-78 -25 -229.5 -44t-268.5 -19q-87 0 -162 14t-143 47.5t-115.5 84.5t-75.5 130t-28 180zM473 1313l172 309h262l-172 -309h-262z" />
<glyph unicode="&#xdb;" horiz-adv-x="1257" d="M111 436v781h305v-713q0 -145 55.5 -208t163.5 -63q75 0 192 17v967h306v-1174q-78 -25 -229.5 -44t-268.5 -19q-87 0 -162 14t-143 47.5t-115.5 84.5t-75.5 130t-28 180zM283 1309l239 315h197l239 -315h-229l-108 147l-109 -147h-229z" />
<glyph unicode="&#xdc;" horiz-adv-x="1257" d="M111 436v781h305v-713q0 -145 55.5 -208t163.5 -63q75 0 192 17v967h306v-1174q-78 -25 -229.5 -44t-268.5 -19q-87 0 -162 14t-143 47.5t-115.5 84.5t-75.5 130t-28 180zM264 1444q0 67 46.5 114.5t111.5 47.5t112.5 -47.5t47.5 -114.5q0 -64 -47.5 -110t-112.5 -46 t-111.5 46t-46.5 110zM649 1444q0 67 46.5 114.5t111.5 47.5q66 0 113 -47.5t47 -114.5q0 -64 -47 -110t-113 -46q-65 0 -111.5 46t-46.5 110z" />
<glyph unicode="&#xdd;" horiz-adv-x="1177" d="M0 1217h336l258 -484l246 484h338l-439 -775v-442h-303v442zM440 1313l172 309h262l-172 -309h-262z" />
<glyph unicode="&#xde;" horiz-adv-x="1077" d="M125 0v1217h305v-177q31 2 92 2q236 0 376 -112.5t140 -335.5q0 -115 -41.5 -201.5t-113 -136t-158 -74t-186.5 -24.5q-59 0 -109 4v-162h-305zM430 422q28 -4 92 -4q98 0 153.5 43t55.5 133q0 91 -58.5 133.5t-150.5 42.5q-54 0 -92 -6v-342z" />
<glyph unicode="&#xdf;" horiz-adv-x="1193" d="M125 0v944q0 223 116.5 346t329.5 123q193 0 307.5 -96.5t114.5 -233.5q0 -57 -17.5 -105.5t-42.5 -80t-50 -57t-42.5 -48t-17.5 -42.5q0 -17 24 -37.5t59.5 -40.5t77.5 -52.5t77.5 -70t59.5 -96.5t24 -129q0 -159 -106.5 -251.5t-276.5 -92.5q-143 0 -221 55v250 q61 -39 106.5 -54.5t100.5 -15.5t86.5 27t31.5 77q0 35 -24 66t-59.5 53t-77 50.5t-77 57t-59.5 74t-24 99.5q0 43 17 82.5t41 70t48 59t41 61t17 63.5q0 52 -36.5 82t-97.5 30q-81 0 -120 -55.5t-39 -148.5v-963h-291z" />
<glyph unicode="&#xe0;" horiz-adv-x="964" d="M70 268q0 143 104.5 213t298.5 70h98v37q0 56 -43 82t-112 26q-142 0 -264 -75v245q130 76 317 76q389 0 389 -342v-580q-180 -40 -377 -40q-411 0 -411 288zM195 1362h262l174 -311h-262zM358 283q0 -47 31.5 -71t87.5 -24q51 0 94 9v178h-77q-136 0 -136 -92z" />
<glyph unicode="&#xe1;" horiz-adv-x="964" d="M70 268q0 143 104.5 213t298.5 70h98v37q0 56 -43 82t-112 26q-142 0 -264 -75v245q130 76 317 76q389 0 389 -342v-580q-180 -40 -377 -40q-411 0 -411 288zM330 1051l174 311h262l-174 -311h-262zM358 283q0 -47 31.5 -71t87.5 -24q51 0 94 9v178h-77q-136 0 -136 -92z " />
<glyph unicode="&#xe2;" horiz-adv-x="964" d="M70 268q0 143 104.5 213t298.5 70h98v37q0 56 -43 82t-112 26q-142 0 -264 -75v245q130 76 317 76q389 0 389 -342v-580q-180 -40 -377 -40q-411 0 -411 288zM143 1038l240 324h197l239 -324h-229l-109 142l-108 -142h-230zM358 283q0 -47 31.5 -71t87.5 -24q51 0 94 9 v178h-77q-136 0 -136 -92z" />
<glyph unicode="&#xe3;" horiz-adv-x="964" d="M70 268q0 143 104.5 213t298.5 70h98v37q0 56 -43 82t-112 26q-142 0 -264 -75v245q130 76 317 76q389 0 389 -342v-580q-180 -40 -377 -40q-411 0 -411 288zM168 1038q0 125 49 200t137 75q44 0 81 -19.5t65 -39t51 -19.5q28 0 40.5 16t12.5 54h178q0 -125 -49 -200 t-137 -75q-44 0 -80.5 19.5t-64 39t-50.5 19.5q-28 0 -41.5 -16t-13.5 -54h-178zM358 283q0 -47 31.5 -71t87.5 -24q51 0 94 9v178h-77q-136 0 -136 -92z" />
<glyph unicode="&#xe4;" horiz-adv-x="964" d="M70 268q0 143 104.5 213t298.5 70h98v37q0 56 -43 82t-112 26q-142 0 -264 -75v245q130 76 317 76q389 0 389 -342v-580q-180 -40 -377 -40q-411 0 -411 288zM131 1192q0 66 46.5 112t111.5 46t112.5 -46.5t47.5 -111.5q0 -66 -47.5 -113t-112.5 -47t-111.5 47t-46.5 113 zM358 283q0 -47 31.5 -71t87.5 -24q51 0 94 9v178h-77q-136 0 -136 -92zM516 1192q0 66 46.5 112t111.5 46q66 0 113 -46t47 -112t-47 -113t-113 -47q-65 0 -111.5 47t-46.5 113z" />
<glyph unicode="&#xe5;" horiz-adv-x="964" d="M70 268q0 143 104.5 213t298.5 70h98v37q0 56 -43 82t-112 26q-142 0 -264 -75v245q130 76 317 76q389 0 389 -342v-580q-180 -40 -377 -40q-411 0 -411 288zM268 1208q0 87 57.5 145t153.5 58q97 0 155 -58t58 -145q0 -88 -58 -146t-155 -58q-96 0 -153.5 58t-57.5 146z M358 283q0 -47 31.5 -71t87.5 -24q51 0 94 9v178h-77q-136 0 -136 -92zM401 1208q0 -35 21 -58.5t57 -23.5q37 0 58.5 23.5t21.5 58.5q0 34 -21.5 57t-58.5 23q-36 0 -57 -23t-21 -57z" />
<glyph unicode="&#xe6;" horiz-adv-x="1517" d="M70 268q0 134 106 200.5t297 66.5h129q0 3 6 45q-17 120 -178 120q-149 0 -278 -79v245q130 76 311 76q194 0 282 -106q115 106 295 106q89 0 159 -23.5t115.5 -64t75 -98t42 -121.5t12.5 -139v-125h-578q38 -144 248 -144q163 0 305 74v-240q-122 -81 -338 -81 q-206 0 -327 100q-145 -100 -320 -100q-71 0 -133.5 16t-115.5 48.5t-84 90t-31 133.5zM358 276q0 -42 30.5 -66t78.5 -24q91 0 166 54q-24 60 -33 131h-117q-58 0 -91.5 -23.5t-33.5 -71.5zM864 535h314q0 73 -35 121.5t-109 48.5q-62 0 -108 -42.5t-62 -127.5z" />
<glyph unicode="&#xe7;" horiz-adv-x="884" d="M57 459q0 214 136 348.5t354 134.5q149 0 262 -68v-270q-101 84 -229 84q-105 0 -167.5 -60t-62.5 -165q0 -101 64 -165.5t176 -64.5q128 0 223 80v-266q-82 -54 -190 -63q-11 -89 -50 -167t-94 -116h-248q68 63 109.5 140.5t48.5 156.5q-157 41 -244.5 163t-87.5 298z " />
<glyph unicode="&#xe8;" horiz-adv-x="989" d="M57 446q0 229 127 362.5t328 133.5q110 0 190.5 -35t126 -98.5t66 -140.5t20.5 -172v-125h-577v-4q18 -69 89 -104.5t159 -35.5q163 0 305 74v-240q-122 -81 -338 -81q-231 0 -363.5 126t-132.5 340zM236 1362h262l174 -311h-262zM340 535h309q0 74 -34.5 122t-108.5 48 q-68 0 -111 -46t-55 -124z" />
<glyph unicode="&#xe9;" horiz-adv-x="989" d="M57 446q0 229 127 362.5t328 133.5q110 0 190.5 -35t126 -98.5t66 -140.5t20.5 -172v-125h-577v-4q18 -69 89 -104.5t159 -35.5q163 0 305 74v-240q-122 -81 -338 -81q-231 0 -363.5 126t-132.5 340zM340 535h309q0 74 -34.5 122t-108.5 48q-68 0 -111 -46t-55 -124z M401 1051l174 311h263l-174 -311h-263z" />
<glyph unicode="&#xea;" horiz-adv-x="989" d="M57 446q0 229 127 362.5t328 133.5q110 0 190.5 -35t126 -98.5t66 -140.5t20.5 -172v-125h-577v-4q18 -69 89 -104.5t159 -35.5q163 0 305 74v-240q-122 -81 -338 -81q-231 0 -363.5 126t-132.5 340zM168 1038l240 324h196l240 -324h-230l-108 142l-109 -142h-229z M340 535h309q0 74 -34.5 122t-108.5 48q-68 0 -111 -46t-55 -124z" />
<glyph unicode="&#xeb;" horiz-adv-x="989" d="M57 446q0 229 127 362.5t328 133.5q110 0 190.5 -35t126 -98.5t66 -140.5t20.5 -172v-125h-577v-4q18 -69 89 -104.5t159 -35.5q163 0 305 74v-240q-122 -81 -338 -81q-231 0 -363.5 126t-132.5 340zM168 1192q0 66 46.5 112t111.5 46t112 -46t47 -112t-47 -113t-112 -47 t-111.5 47t-46.5 113zM340 535h309q0 74 -34.5 122t-108.5 48q-68 0 -111 -46t-55 -124zM553 1192q0 66 46.5 112t111.5 46q66 0 112.5 -46t46.5 -112t-46.5 -113t-112.5 -47q-65 0 -111.5 47t-46.5 113z" />
<glyph unicode="&#xec;" horiz-adv-x="540" d="M-35 1362h262l174 -311h-262zM125 0v922h291v-922h-291z" />
<glyph unicode="&#xed;" horiz-adv-x="540" d="M125 0v922h291v-922h-291zM143 1051l174 311h263l-174 -311h-263z" />
<glyph unicode="&#xee;" horiz-adv-x="540" d="M-68 1038l240 324h197l239 -324h-229l-109 142l-108 -142h-230zM125 0v922h291v-922h-291z" />
<glyph unicode="&#xef;" horiz-adv-x="540" d="M-82 1192q0 66 46.5 112t111.5 46t112.5 -46.5t47.5 -111.5q0 -66 -47.5 -113t-112.5 -47t-111.5 47t-46.5 113zM125 0v922h291v-922h-291zM303 1192q0 66 46.5 112t111.5 46q66 0 113 -46t47 -112t-47 -113t-113 -47q-65 0 -111.5 47t-46.5 113z" />
<glyph unicode="&#xf0;" horiz-adv-x="1091" d="M57 453q0 208 133 335t332 127q85 0 123 -22q-43 70 -113 149l-350 -108v178l221 70q-118 118 -237 211h358q55 -46 140 -131l247 77v-178l-125 -39q248 -314 248 -630q0 -118 -37.5 -215.5t-103.5 -162t-155 -99.5t-193 -35q-209 0 -348.5 132t-139.5 341zM350 457 q0 -105 54.5 -166.5t140.5 -61.5q88 0 142 61t54 167t-54 166.5t-142 60.5q-87 0 -141 -61t-54 -166z" />
<glyph unicode="&#xf1;" horiz-adv-x="1095" d="M125 0v856q99 39 225 62.5t234 23.5q195 0 298 -86t103 -293v-563h-291v551q0 131 -131 131q-82 0 -147 -23v-659h-291zM248 1038q0 125 49 200t137 75q44 0 81 -19.5t65 -39t51 -19.5q28 0 40.5 16t12.5 54h178q0 -125 -49 -200t-137 -75q-44 0 -80.5 19.5t-64 39 t-50.5 19.5q-28 0 -41.5 -16t-13.5 -54h-178z" />
<glyph unicode="&#xf2;" horiz-adv-x="1091" d="M57 461q0 212 139.5 346.5t348.5 134.5q137 0 248.5 -59.5t176 -170t64.5 -251.5t-64.5 -251.5t-176 -170t-248.5 -59.5q-209 0 -348.5 134.5t-139.5 346.5zM254 1362h262l174 -311h-262zM350 461q0 -107 54.5 -169.5t140.5 -62.5q88 0 142 62.5t54 169.5t-54 169 t-142 62q-86 0 -140.5 -62t-54.5 -169z" />
<glyph unicode="&#xf3;" horiz-adv-x="1091" d="M57 461q0 212 139.5 346.5t348.5 134.5q137 0 248.5 -59.5t176 -170t64.5 -251.5t-64.5 -251.5t-176 -170t-248.5 -59.5q-209 0 -348.5 134.5t-139.5 346.5zM350 461q0 -107 54.5 -169.5t140.5 -62.5q88 0 142 62.5t54 169.5t-54 169t-142 62q-86 0 -140.5 -62 t-54.5 -169zM412 1051l174 311h262l-174 -311h-262z" />
<glyph unicode="&#xf4;" horiz-adv-x="1091" d="M57 461q0 212 139.5 346.5t348.5 134.5q137 0 248.5 -59.5t176 -170t64.5 -251.5t-64.5 -251.5t-176 -170t-248.5 -59.5q-209 0 -348.5 134.5t-139.5 346.5zM207 1038l239 324h197l240 -324h-230l-108 142l-109 -142h-229zM350 461q0 -107 54.5 -169.5t140.5 -62.5 q88 0 142 62.5t54 169.5t-54 169t-142 62q-86 0 -140.5 -62t-54.5 -169z" />
<glyph unicode="&#xf5;" horiz-adv-x="1091" d="M57 461q0 212 139.5 346.5t348.5 134.5q137 0 248.5 -59.5t176 -170t64.5 -251.5t-64.5 -251.5t-176 -170t-248.5 -59.5q-209 0 -348.5 134.5t-139.5 346.5zM238 1038q0 125 49 200t137 75q44 0 81 -19.5t65 -39t51 -19.5q28 0 40.5 16t12.5 54h178q0 -125 -49 -200 t-137 -75q-44 0 -80.5 19.5t-64 39t-50.5 19.5q-28 0 -41.5 -16t-13.5 -54h-178zM350 461q0 -107 54.5 -169.5t140.5 -62.5q88 0 142 62.5t54 169.5t-54 169t-142 62q-86 0 -140.5 -62t-54.5 -169z" />
<glyph unicode="&#xf6;" horiz-adv-x="1091" d="M57 461q0 212 139.5 346.5t348.5 134.5q137 0 248.5 -59.5t176 -170t64.5 -251.5t-64.5 -251.5t-176 -170t-248.5 -59.5q-209 0 -348.5 134.5t-139.5 346.5zM197 1192q0 66 46 112t111 46t112.5 -46.5t47.5 -111.5q0 -66 -47.5 -113t-112.5 -47t-111 47t-46 113zM350 461 q0 -107 54.5 -169.5t140.5 -62.5q88 0 142 62.5t54 169.5t-54 169t-142 62q-86 0 -140.5 -62t-54.5 -169zM582 1192q0 66 46 112t111 46q66 0 113 -46t47 -112t-47 -113t-113 -47q-65 0 -111 47t-46 113z" />
<glyph unicode="&#xf7;" horiz-adv-x="940" d="M82 494v211h776v-211h-776zM328 268q0 58 42 101t99 43q58 0 100.5 -42.5t42.5 -101.5q0 -57 -42.5 -99t-100.5 -42q-57 0 -99 42t-42 99zM328 928q0 58 42 100.5t99 42.5q59 0 101 -42.5t42 -100.5q0 -57 -42.5 -99.5t-100.5 -42.5q-57 0 -99 42.5t-42 99.5z" />
<glyph unicode="&#xf8;" horiz-adv-x="1112" d="M47 0l131 145q-110 129 -110 316q0 212 139.5 346.5t347.5 134.5q151 0 272 -76l50 56h188l-131 -146q110 -129 110 -315q0 -141 -64.5 -251.5t-176 -170t-248.5 -59.5q-152 0 -270 73l-49 -53h-189zM350 461q0 -54 17 -107l288 322q-44 24 -100 24q-90 0 -147.5 -64.5 t-57.5 -174.5zM455 244q48 -23 100 -23q93 0 151 64t58 176q0 56 -16 106z" />
<glyph unicode="&#xf9;" horiz-adv-x="1069" d="M106 346v576h291v-549q0 -82 30 -119t118 -37q49 0 108 12v693h291v-889q-75 -24 -189.5 -38.5t-209.5 -14.5q-105 0 -181.5 17t-136.5 57.5t-90.5 113.5t-30.5 178zM233 1362h263l174 -311h-262z" />
<glyph unicode="&#xfa;" horiz-adv-x="1069" d="M106 346v576h291v-549q0 -82 30 -119t118 -37q49 0 108 12v693h291v-889q-75 -24 -189.5 -38.5t-209.5 -14.5q-105 0 -181.5 17t-136.5 57.5t-90.5 113.5t-30.5 178zM381 1051l174 311h262l-174 -311h-262z" />
<glyph unicode="&#xfb;" horiz-adv-x="1069" d="M106 346v576h291v-549q0 -82 30 -119t118 -37q49 0 108 12v693h291v-889q-75 -24 -189.5 -38.5t-209.5 -14.5q-105 0 -181.5 17t-136.5 57.5t-90.5 113.5t-30.5 178zM186 1038l240 324h197l239 -324h-229l-109 142l-108 -142h-230z" />
<glyph unicode="&#xfc;" horiz-adv-x="1069" d="M106 346v576h291v-549q0 -82 30 -119t118 -37q49 0 108 12v693h291v-889q-75 -24 -189.5 -38.5t-209.5 -14.5q-105 0 -181.5 17t-136.5 57.5t-90.5 113.5t-30.5 178zM186 1192q0 66 46.5 112t111.5 46t112.5 -46.5t47.5 -111.5q0 -66 -47.5 -113t-112.5 -47t-111.5 47 t-46.5 113zM571 1192q0 66 46.5 112t111.5 46q66 0 113 -46t47 -112t-47 -113t-113 -47q-65 0 -111.5 47t-46.5 113z" />
<glyph unicode="&#xfd;" horiz-adv-x="1054" d="M10 922h314l211 -600l206 600h303l-503 -1291h-287l133 351zM395 1051l174 311h262l-174 -311h-262z" />
<glyph unicode="&#xfe;" horiz-adv-x="1120" d="M125 -369v1762h291v-496q78 45 200 45q194 0 320.5 -125.5t126.5 -327.5q0 -243 -136 -376t-382 -133q-79 0 -129 12v-361h-291zM416 246q47 -15 104 -15q112 0 179 62.5t67 187.5q0 88 -55.5 143.5t-145.5 55.5q-86 0 -149 -47v-387z" />
<glyph unicode="&#xff;" horiz-adv-x="1054" d="M10 922h314l211 -600l206 600h303l-503 -1291h-287l133 351zM186 1192q0 66 46.5 112t111.5 46t112.5 -46.5t47.5 -111.5q0 -66 -47.5 -113t-112.5 -47t-111.5 47t-46.5 113zM571 1192q0 66 46.5 112t111.5 46q66 0 113 -46t47 -112t-47 -113t-113 -47q-65 0 -111.5 47 t-46.5 113z" />
<glyph unicode="&#x152;" horiz-adv-x="1683" d="M66 608q0 176 84.5 316t228.5 216.5t319 76.5h881v-269h-504v-209h459v-262h-459v-209h518v-268h-895q-175 0 -319 76.5t-228.5 216.5t-84.5 315zM379 608q0 -152 90 -247t229 -95h76v684h-76q-140 0 -229.5 -94t-89.5 -248z" />
<glyph unicode="&#x153;" horiz-adv-x="1667" d="M57 461q0 212 139.5 346.5t348.5 134.5q194 0 332 -125q125 125 313 125q110 0 190.5 -35t126 -98.5t66 -140.5t20.5 -172v-125h-577v-4q18 -69 89 -104.5t159 -35.5q163 0 305 74v-240q-122 -81 -338 -81q-220 0 -352 126q-139 -126 -334 -126q-209 0 -348.5 134.5 t-139.5 346.5zM350 461q0 -107 54.5 -169.5t140.5 -62.5q88 0 142 62.5t54 169.5t-54 169t-142 62q-86 0 -140.5 -62t-54.5 -169zM1018 535h309q0 74 -34.5 122t-108.5 48q-68 0 -111 -46t-55 -124z" />
<glyph unicode="&#x178;" horiz-adv-x="1177" d="M0 1217h336l258 -484l246 484h338l-439 -775v-442h-303v442zM236 1444q0 67 46 114.5t111 47.5t112.5 -47.5t47.5 -114.5q0 -64 -47.5 -110t-112.5 -46t-111 46t-46 110zM621 1444q0 67 46 114.5t111 47.5q66 0 113 -47.5t47 -114.5q0 -64 -47 -110t-113 -46 q-65 0 -111 46t-46 110z" />
<glyph unicode="&#x2c6;" horiz-adv-x="1024" d="M174 1038l240 324h196l240 -324h-229l-109 142l-109 -142h-229z" />
<glyph unicode="&#x2dc;" horiz-adv-x="1024" d="M205 1038q0 125 49 200t137 75q44 0 81 -19.5t65 -39t51 -19.5q28 0 40.5 16t12.5 54h178q0 -125 -49 -200t-137 -75q-44 0 -80.5 19.5t-64 39t-50.5 19.5q-28 0 -41.5 -16t-13.5 -54h-178z" />
<glyph unicode="&#x2000;" horiz-adv-x="840" />
<glyph unicode="&#x2001;" horiz-adv-x="1681" />
<glyph unicode="&#x2002;" horiz-adv-x="840" />
<glyph unicode="&#x2003;" horiz-adv-x="1681" />
<glyph unicode="&#x2004;" horiz-adv-x="560" />
<glyph unicode="&#x2005;" horiz-adv-x="420" />
<glyph unicode="&#x2006;" horiz-adv-x="280" />
<glyph unicode="&#x2007;" horiz-adv-x="280" />
<glyph unicode="&#x2008;" horiz-adv-x="210" />
<glyph unicode="&#x2009;" horiz-adv-x="336" />
<glyph unicode="&#x200a;" horiz-adv-x="93" />
<glyph unicode="&#x2010;" horiz-adv-x="727" d="M70 406v258h587v-258h-587z" />
<glyph unicode="&#x2011;" horiz-adv-x="727" d="M70 406v258h587v-258h-587z" />
<glyph unicode="&#x2012;" horiz-adv-x="727" d="M70 406v258h587v-258h-587z" />
<glyph unicode="&#x2013;" horiz-adv-x="1171" d="M70 444v220h1032v-220h-1032z" />
<glyph unicode="&#x2014;" horiz-adv-x="1949" d="M70 444v220h1810v-220h-1810z" />
<glyph unicode="&#x2018;" horiz-adv-x="512" d="M96 827q0 164 66 292.5t164 199.5h192q-73 -112 -107 -230.5t-34 -261.5h-281z" />
<glyph unicode="&#x2019;" horiz-adv-x="512" d="M31 827q73 112 107 230.5t34 261.5h281q0 -164 -66 -292.5t-164 -199.5h-192z" />
<glyph unicode="&#x201a;" horiz-adv-x="512" d="M8 -236q142 217 142 492h280q0 -164 -65.5 -292.5t-163.5 -199.5h-193z" />
<glyph unicode="&#x201c;" horiz-adv-x="917" d="M96 827q0 164 66 292.5t164 199.5h192q-73 -112 -107 -230.5t-34 -261.5h-281zM500 827q0 163 66 292t163 200h193q-140 -214 -140 -492h-282z" />
<glyph unicode="&#x201d;" horiz-adv-x="917" d="M31 827q73 112 107 230.5t34 261.5h281q0 -164 -66 -292.5t-164 -199.5h-192zM436 827q73 112 106 230t33 262h283q0 -164 -65.5 -292.5t-163.5 -199.5h-193z" />
<glyph unicode="&#x201e;" horiz-adv-x="917" d="M8 -236q142 217 142 492h280q0 -164 -65.5 -292.5t-163.5 -199.5h-193zM414 -236q73 112 106 230t33 262h283q0 -164 -66 -292.5t-164 -199.5h-192z" />
<glyph unicode="&#x2022;" horiz-adv-x="704" d="M102 535q0 105 72 178t176 73t178 -73.5t74 -177.5t-73.5 -176t-178.5 -72q-104 0 -176 72t-72 176z" />
<glyph unicode="&#x2026;" horiz-adv-x="1677" d="M94 164q0 79 52.5 134.5t125.5 55.5q83 0 138 -55t55 -135q0 -74 -55.5 -127t-137.5 -53q-72 0 -125 53.5t-53 126.5zM653 164q0 79 52.5 134.5t125.5 55.5q83 0 138 -55t55 -135q0 -74 -55.5 -127t-137.5 -53q-72 0 -125 53.5t-53 126.5zM1212 164q0 79 53 134.5 t126 55.5q83 0 137.5 -55t54.5 -135q0 -75 -55 -127.5t-137 -52.5q-72 0 -125.5 53.5t-53.5 126.5z" />
<glyph unicode="&#x202f;" horiz-adv-x="336" />
<glyph unicode="&#x2039;" horiz-adv-x="649" d="M61 440l252 324h275l-250 -324l250 -323h-275z" />
<glyph unicode="&#x203a;" horiz-adv-x="649" d="M61 117l250 323l-250 324h275l252 -324l-252 -323h-275z" />
<glyph unicode="&#x205f;" horiz-adv-x="420" />
<glyph unicode="&#x20ac;" horiz-adv-x="1040" d="M31 410v143h102q-2 18 -2 55q0 33 2 49h-102v144h123q48 200 189 318t341 118q175 0 295 -78v-325q-115 129 -283 129q-163 0 -223 -162h287l-29 -144h-285q-2 -16 -2 -49q0 -37 2 -55h269l-29 -143h-209q65 -156 230 -156q91 0 153 29t139 98v-311q-130 -90 -315 -90 q-201 0 -341.5 116t-188.5 314h-123z" />
<glyph unicode="&#x2122;" horiz-adv-x="1466" d="M41 1051v166h522v-166h-170v-402h-182v402h-170zM567 649l99 568h211l98 -330l92 330h211l96 -568h-180l-59 297l-93 -297h-141l-98 297l-53 -297h-183z" />
<glyph unicode="&#x25fc;" horiz-adv-x="921" d="M0 0v922h922v-922h-922z" />
</font>
</defs>
</svg>
